<svg xmlns="http://www.w3.org/2000/svg" width="2809" height="1654" viewBox="0 0 2809 1654" fill="none">
  <path d="M1952.79 -0.257274C1954.21 -0.259968 1955.63 -0.263537 1957.05 -0.267898C1960.96 -0.277358 1964.87 -0.274355 1968.78 -0.269343C1973.03 -0.266078 1977.28 -0.274357 1981.53 -0.281161C1988.99 -0.291474 1996.44 -0.294303 2003.89 -0.292249C2014.98 -0.289202 2026.06 -0.297515 2037.15 -0.307998C2058.09 -0.327355 2079.04 -0.332967 2099.98 -0.334112C2116.16 -0.335031 2132.33 -0.339145 2148.51 -0.345514C2153.16 -0.347309 2157.81 -0.349088 2162.47 -0.350863C2163.62 -0.351305 2164.78 -0.351747 2165.97 -0.352203C2198.52 -0.364514 2231.06 -0.372404 2263.61 -0.371516C2264.84 -0.371485 2266.06 -0.371454 2267.33 -0.371422C2273.55 -0.371256 2279.77 -0.371058 2285.99 -0.370853C2287.23 -0.370813 2288.46 -0.370773 2289.74 -0.370732C2292.23 -0.370651 2294.73 -0.370567 2297.23 -0.370481C2336.11 -0.369255 2374.99 -0.384269 2413.86 -0.411626C2457.53 -0.442339 2501.19 -0.459559 2544.86 -0.4577C2549.51 -0.45755 2554.17 -0.457453 2558.82 -0.457391C2559.97 -0.457368 2561.12 -0.457344 2562.3 -0.45732C2580.75 -0.457259 2599.21 -0.470038 2617.66 -0.487255C2636.21 -0.504199 2654.75 -0.506196 2673.3 -0.493037C2684.32 -0.485639 2695.34 -0.489331 2706.35 -0.508922C2713.72 -0.520902 2721.08 -0.518351 2728.44 -0.503981C2732.63 -0.496202 2736.82 -0.494711 2741.02 -0.510895C2744.84 -0.525505 2748.66 -0.52152 2752.48 -0.503047C2754.49 -0.498011 2756.5 -0.51249 2758.51 -0.527893C2772.52 -0.418326 2784.83 4.04296 2795.19 13.625C2804.9 23.9296 2809.18 35.4902 2809.44 49.375C2809.46 50.1414 2809.48 50.9078 2809.51 51.6975C2809.45 64.4937 2802.96 75.4465 2797 86.375C2796.23 87.7984 2795.47 89.2222 2794.7 90.6465C2792.82 94.1418 2790.92 97.6311 2789.03 101.118C2787.57 103.788 2786.12 106.461 2784.67 109.133C2782.75 112.668 2780.82 116.198 2778.89 119.727C2775.76 125.432 2772.66 131.153 2769.56 136.875C2769.02 137.872 2768.48 138.869 2767.93 139.896C2766.28 142.93 2764.64 145.965 2763 149C2756.19 161.582 2749.37 174.159 2742.52 186.716C2737.2 196.454 2731.92 206.211 2726.64 215.968C2723.39 221.978 2720.13 227.986 2716.88 233.995C2714.16 239.02 2711.43 244.045 2708.71 249.07C2703 259.629 2697.27 270.179 2691.52 280.716C2685.65 291.463 2679.83 302.232 2674 313C2667.19 325.582 2660.37 338.159 2653.52 350.716C2647.65 361.463 2641.83 372.232 2636 383C2629.19 395.582 2622.37 408.159 2615.52 420.716C2609.65 431.463 2603.83 442.232 2598 453C2591.19 465.582 2584.37 478.159 2577.52 490.716C2571.65 501.463 2565.83 512.232 2560 523C2553.19 535.582 2546.37 548.159 2539.52 560.716C2533.65 571.463 2527.83 582.232 2522 593C2515.19 605.582 2508.37 618.159 2501.52 630.716C2495.65 641.463 2489.83 652.232 2484 663C2477.19 675.582 2470.37 688.159 2463.52 700.716C2457.65 711.463 2451.83 722.232 2446 733C2439.19 745.582 2432.37 758.159 2425.52 770.716C2419.65 781.463 2413.83 792.232 2408 803C2401.19 815.582 2394.37 828.159 2387.52 840.716C2381.65 851.463 2375.83 862.232 2370 873C2363.19 885.582 2356.37 898.159 2349.52 910.716C2343.65 921.463 2337.83 932.232 2332 943C2325.7 954.634 2319.41 966.267 2313.06 977.875C2308.68 985.9 2304.33 993.945 2300 1002C2295.19 1010.95 2290.34 1019.89 2285.47 1028.81C2281.8 1035.53 2278.14 1042.26 2274.5 1049C2270.35 1056.67 2266.18 1064.34 2262 1072C2255.64 1083.65 2249.32 1095.32 2243 1107C2236.19 1119.58 2229.37 1132.16 2222.52 1144.72C2216.65 1155.46 2210.83 1166.23 2205 1177C2198.19 1189.58 2191.37 1202.16 2184.52 1214.72C2178.65 1225.46 2172.83 1236.23 2167 1247C2160.19 1259.58 2153.37 1272.16 2146.52 1284.72C2140.65 1295.46 2134.83 1306.23 2129 1317C2122.19 1329.58 2115.37 1342.16 2108.52 1354.72C2102.65 1365.46 2096.83 1376.23 2091 1387C2084.19 1399.58 2077.37 1412.16 2070.52 1424.72C2064.65 1435.46 2058.83 1446.23 2053 1457C2046.19 1469.58 2039.37 1482.16 2032.52 1494.72C2026.65 1505.46 2020.83 1516.23 2015 1527C2008.19 1539.58 2001.37 1552.16 1994.52 1564.72C1990.85 1571.43 1987.2 1578.15 1983.56 1584.88C1983.03 1585.86 1982.49 1586.85 1981.94 1587.87C1979.14 1593.04 1976.35 1598.21 1973.57 1603.39C1950.87 1645.69 1950.87 1645.69 1930.3 1652.16C1926.87 1652.96 1923.49 1653.56 1920 1654C1919.24 1654.1 1918.47 1654.2 1917.68 1654.31C1905.73 1655.06 1893.2 1650.32 1884 1643C1883.23 1642.4 1882.47 1641.8 1881.68 1641.18C1874.66 1634.94 1870.73 1626.95 1866.45 1618.76C1864.31 1614.68 1862.11 1610.63 1859.92 1606.57C1858.11 1603.22 1856.31 1599.87 1854.51 1596.52C1851.36 1590.66 1848.19 1584.83 1845 1579C1840.06 1569.96 1835.16 1560.89 1830.28 1551.82C1824.75 1541.52 1819.18 1531.24 1813.61 1520.97C1810.9 1515.98 1808.2 1510.99 1805.5 1506C1804.42 1504 1803.33 1502 1802.25 1500C1765.42 1432 1728.58 1364 1691.75 1296C1691.21 1295.01 1690.68 1294.02 1690.13 1293C1689.04 1291 1687.96 1289 1686.87 1287C1684.18 1282.02 1681.48 1277.04 1678.79 1272.07C1673.15 1261.68 1667.54 1251.28 1661.94 1240.88C1657.17 1232.01 1652.37 1223.16 1647.54 1214.33C1643.06 1206.13 1638.63 1197.9 1634.21 1189.67C1630.5 1182.77 1626.76 1175.88 1623 1169C1618.03 1159.91 1613.12 1150.8 1608.21 1141.67C1604.5 1134.77 1600.76 1127.88 1597 1121C1592.03 1111.91 1587.12 1102.8 1582.21 1093.67C1578.5 1086.77 1574.76 1079.88 1571 1073C1566.03 1063.91 1561.12 1054.8 1556.21 1045.67C1552.5 1038.77 1548.76 1031.88 1545 1025C1540.03 1015.91 1535.12 1006.8 1530.21 997.672C1526.5 990.768 1522.76 983.878 1519 977C1514.06 967.959 1509.16 958.892 1504.28 949.817C1499.28 940.522 1494.26 931.239 1489.23 921.961C1487.02 917.885 1484.82 913.807 1482.61 909.727C1482.06 908.693 1481.5 907.66 1480.92 906.595C1479.82 904.551 1478.71 902.507 1477.61 900.461C1474.86 895.357 1472.03 890.306 1469.1 885.303C1463.17 875.128 1459.72 865.826 1459.5 854C1459.48 853.301 1459.46 852.602 1459.44 851.881C1459.58 840.385 1464.57 830.115 1470.12 820.312C1470.7 819.273 1471.28 818.233 1471.87 817.162C1473.57 814.102 1475.28 811.05 1477 808C1478.28 805.709 1479.55 803.416 1480.82 801.123C1481.61 799.7 1482.4 798.278 1483.2 796.857C1486.63 790.707 1489.97 784.512 1493.31 778.312C1497.53 770.486 1501.84 762.72 1506.25 755C1511.91 745.078 1517.27 735.013 1522.6 724.91C1527.6 715.447 1532.73 706.085 1538.05 696.801C1542.71 688.624 1547.11 680.323 1551.5 672C1556.88 661.793 1562.38 651.676 1568.12 641.66C1572.57 633.854 1576.8 625.94 1581 618C1585.69 609.136 1590.45 600.33 1595.44 591.625C1601.04 581.831 1606.34 571.889 1611.6 561.908C1616.11 553.365 1620.7 544.883 1625.5 536.5C1631.15 526.638 1636.49 516.627 1641.8 506.579C1646.25 498.155 1650.74 489.757 1655.4 481.449C1658.77 475.439 1662.04 469.379 1665.31 463.312C1669.53 455.486 1673.84 447.72 1678.25 440C1683.91 430.078 1689.27 420.013 1694.6 409.91C1699.6 400.447 1704.73 391.085 1710.05 381.801C1714.71 373.624 1719.11 365.323 1723.5 357C1728.88 346.793 1734.38 336.676 1740.12 326.66C1744.57 318.854 1748.8 310.94 1753 303C1757.69 294.136 1762.45 285.33 1767.44 276.625C1773.04 266.831 1778.34 256.889 1783.6 246.908C1788.11 238.365 1792.7 229.883 1797.5 221.5C1803.15 211.638 1808.49 201.627 1813.8 191.579C1818.25 183.155 1822.74 174.757 1827.4 166.449C1830.77 160.439 1834.04 154.379 1837.31 148.312C1841.53 140.486 1845.84 132.72 1850.25 125C1855.91 115.078 1861.27 105.013 1866.6 94.9099C1871.59 85.4556 1876.71 76.0971 1882.04 66.8271C1885.23 61.2259 1888.31 55.5711 1891.3 49.8594C1891.67 49.1489 1892.05 48.4383 1892.43 47.7063C1894.27 44.2016 1896.1 40.692 1897.91 37.1738C1906.83 20.0371 1916.27 7.91368 1934.83 0.937217C1940.67 -0.679076 1946.78 -0.276138 1952.79 -0.257274Z" fill="#FF6262"/>
  <path d="M45.9291 -0.128811C47.127 -0.132083 48.3249 -0.135355 49.5591 -0.138726C50.8741 -0.137243 52.1891 -0.135759 53.544 -0.134231C54.9617 -0.136184 56.3794 -0.138573 57.7971 -0.141358C61.7102 -0.147765 65.6233 -0.14792 69.5364 -0.147081C73.7871 -0.14725 78.0378 -0.153155 82.2885 -0.158322C90.727 -0.167655 99.1656 -0.171571 107.604 -0.173841C117.709 -0.176801 127.813 -0.185498 137.918 -0.194255C162.342 -0.215107 186.766 -0.22557 211.191 -0.234385C222.742 -0.23859 234.294 -0.243812 245.846 -0.249069C285.379 -0.26696 324.912 -0.281956 364.445 -0.28939C366.927 -0.289864 369.409 -0.29034 371.891 -0.290817C373.738 -0.291172 373.738 -0.291172 375.621 -0.291533C381.858 -0.292735 388.095 -0.29395 394.332 -0.295175C395.57 -0.295416 396.808 -0.295656 398.083 -0.295903C438.222 -0.303798 478.361 -0.327233 518.5 -0.359731C560.926 -0.394018 603.351 -0.41374 645.777 -0.417034C650.433 -0.417451 655.089 -0.417931 659.745 -0.418457C660.891 -0.41858 662.038 -0.418703 663.219 -0.41883C681.68 -0.421164 700.141 -0.436831 718.602 -0.457299C737.154 -0.47754 755.705 -0.483042 774.256 -0.473528C785.281 -0.468307 796.305 -0.474221 807.329 -0.496063C814.693 -0.509551 822.056 -0.508512 829.42 -0.495661C833.616 -0.488751 837.811 -0.48814 842.007 -0.505221C845.829 -0.520651 849.649 -0.517477 853.471 -0.499811C855.484 -0.495202 857.497 -0.510124 859.51 -0.52597C873.105 -0.422557 885.266 3.65334 895.25 13.1374C900.961 19.3321 904.946 25.6971 908.75 33.1875C909.965 35.5128 911.183 37.837 912.402 40.1601C913.005 41.3153 913.608 42.4705 914.23 43.6606C916.818 48.5437 919.559 53.3336 922.312 58.125C927.958 68.0028 933.296 78.0288 938.603 88.0906C943.112 96.6345 947.696 105.117 952.5 113.5C958.151 123.362 963.492 133.373 968.802 143.421C973.253 151.845 977.737 160.243 982.402 168.551C985.773 174.561 989.045 180.621 992.312 186.687C996.532 194.514 1000.84 202.28 1005.25 210C1010.91 219.922 1016.27 229.987 1021.6 240.09C1026.11 248.634 1030.7 257.117 1035.5 265.5C1041.15 275.362 1046.49 285.373 1051.8 295.421C1056.25 303.845 1060.74 312.243 1065.4 320.551C1068.77 326.561 1072.04 332.621 1075.31 338.688C1079.53 346.514 1083.84 354.28 1088.25 362C1093.91 371.922 1099.27 381.987 1104.6 392.09C1109.11 400.634 1113.7 409.117 1118.5 417.5C1123.7 426.567 1128.63 435.758 1133.5 445C1138.88 455.207 1144.38 465.324 1150.12 475.34C1154.93 483.785 1159.48 492.359 1164.03 500.949C1168.38 509.162 1172.82 517.309 1177.44 525.375C1183.04 535.169 1188.34 545.111 1193.6 555.092C1198.11 563.635 1202.7 572.117 1207.5 580.5C1213.15 590.362 1218.49 600.373 1223.8 610.421C1228.25 618.845 1232.74 627.243 1237.4 635.551C1240.77 641.561 1244.04 647.621 1247.31 653.687C1251.53 661.514 1255.84 669.28 1260.25 677C1265.91 686.922 1271.27 696.987 1276.6 707.09C1281.11 715.634 1285.7 724.117 1290.5 732.5C1295.7 741.567 1300.63 750.758 1305.5 760C1310.4 769.283 1315.35 778.515 1320.56 787.625C1325.72 796.645 1330.68 805.765 1335.56 814.937C1335.91 815.583 1336.25 816.228 1336.61 816.894C1338.75 820.922 1340.88 824.959 1343 829C1343.42 829.783 1343.85 830.565 1344.28 831.372C1348.16 838.727 1349.36 845.521 1349.37 853.75C1349.4 854.472 1349.42 855.194 1349.45 855.937C1349.51 867.215 1344.21 877.164 1339 886.875C1338.43 887.956 1337.86 889.037 1337.27 890.15C1332.11 899.885 1326.83 909.555 1321.53 919.212C1318.85 924.091 1316.21 928.983 1313.56 933.875C1313.02 934.873 1312.48 935.871 1311.93 936.899C1310.83 938.922 1309.74 940.945 1308.64 942.968C1305.93 947.979 1303.21 952.99 1300.5 958C1299.42 960 1298.33 962 1297.25 964C1238.75 1072 1238.75 1072 1237.13 1075C1236.04 1077 1234.96 1079 1233.87 1081C1231.18 1085.98 1228.48 1090.96 1225.79 1095.93C1220.15 1106.32 1214.53 1116.72 1208.94 1127.13C1204.17 1135.99 1199.37 1144.84 1194.54 1153.67C1190.66 1160.77 1186.83 1167.88 1183 1175C1178.21 1183.91 1173.39 1192.8 1168.54 1201.67C1164.66 1208.77 1160.83 1215.88 1157 1223C1152.21 1231.91 1147.39 1240.8 1142.54 1249.67C1138.66 1256.77 1134.83 1263.88 1131 1271C1126.21 1279.91 1121.39 1288.8 1116.54 1297.67C1112.66 1304.77 1108.83 1311.88 1105 1319C1100.21 1327.91 1095.39 1336.8 1090.54 1345.67C1086.66 1352.77 1082.83 1359.88 1079 1367C1074.21 1375.91 1069.39 1384.8 1064.54 1393.67C1060.66 1400.77 1056.83 1407.88 1053 1415C1048.69 1423.01 1044.36 1431.02 1040 1439C1035.06 1448.04 1030.16 1457.11 1025.28 1466.18C1019.75 1476.48 1014.18 1486.76 1008.61 1497.03C1005.9 1502.02 1003.2 1507.01 1000.5 1512C999.417 1514 998.333 1516 997.25 1518C996.714 1518.99 996.177 1519.98 995.625 1521C985.333 1540 975.042 1559 964.75 1578C964.213 1578.99 963.677 1579.98 963.124 1581C962.045 1582.99 960.965 1584.99 959.886 1586.98C957.11 1592.1 954.339 1597.22 951.574 1602.35C948.863 1607.38 946.136 1612.4 943.401 1617.41C942.169 1619.69 940.959 1621.97 939.758 1624.27C933.172 1636.63 923.85 1647.05 910.129 1651.25C896.022 1655.21 882.652 1655.21 869.25 1648.38C857.748 1641.44 851.255 1632.62 845 1621C844.419 1619.92 843.839 1618.85 843.241 1617.74C839.799 1611.35 836.389 1604.94 832.992 1598.52C829.644 1592.2 826.249 1585.9 822.812 1579.63C822.096 1578.32 822.096 1578.32 821.366 1576.98C820.403 1575.22 819.441 1573.47 818.478 1571.71C815.827 1566.85 813.195 1561.99 810.562 1557.13C810.023 1556.13 809.483 1555.13 808.927 1554.1C806.736 1550.06 804.545 1546.01 802.354 1541.96C796.585 1531.3 790.809 1520.64 785 1510C778.086 1497.34 771.22 1484.65 764.354 1471.96C758.585 1461.3 752.809 1450.64 747 1440C740.086 1427.34 733.22 1414.65 726.354 1401.96C720.585 1391.3 714.809 1380.64 709 1370C702.086 1357.34 695.22 1344.65 688.354 1331.96C682.585 1321.3 676.809 1310.64 671 1300C664.086 1287.34 657.22 1274.65 650.354 1261.96C648.716 1258.93 647.077 1255.9 645.437 1252.88C644.898 1251.88 644.358 1250.88 643.803 1249.86C640.236 1243.27 636.653 1236.7 633.062 1230.13C628.075 1221 623.139 1211.84 618.213 1202.68C613.993 1194.83 609.741 1187 605.469 1179.19C601.797 1172.47 598.144 1165.74 594.5 1159C590.347 1151.33 586.182 1143.66 582 1136C575.086 1123.34 568.22 1110.65 561.354 1097.96C555.585 1087.3 549.809 1076.64 544 1066C537.086 1053.34 530.22 1040.65 523.354 1027.96C517.585 1017.3 511.809 1006.64 506 996C499.086 983.337 492.22 970.648 485.354 957.959C479.585 947.298 473.809 936.64 468 926C461.086 913.337 454.22 900.648 447.354 887.959C441.585 877.298 435.809 866.64 430 856C423.086 843.337 416.22 830.648 409.354 817.959C403.585 807.298 397.809 796.64 392 786C385.086 773.337 378.22 760.648 371.354 747.959C365.585 737.298 359.809 726.64 354 716C347.086 703.337 340.22 690.648 333.354 677.959C327.585 667.298 321.809 656.64 316 646C309.086 633.337 302.22 620.648 295.354 607.959C289.585 597.298 283.809 586.64 278 576C271.086 563.337 264.22 550.648 257.354 537.959C251.585 527.298 245.809 516.64 240 506C233.086 493.337 226.22 480.648 219.354 467.959C217.716 464.931 216.077 461.903 214.437 458.875C213.898 457.879 213.358 456.882 212.803 455.855C209.236 449.271 205.653 442.696 202.062 436.125C197.075 426.996 192.139 417.839 187.213 408.677C182.993 400.832 178.741 393.005 174.469 385.188C170.797 378.467 167.144 371.736 163.5 365C159.347 357.326 155.182 349.658 151 342C144.086 329.337 137.22 316.648 130.354 303.959C124.585 293.298 118.809 282.64 113 272C106.086 259.337 99.2205 246.648 92.3544 233.959C86.5849 223.298 80.8094 212.64 74.9999 202C68.0857 189.337 61.2205 176.648 54.3544 163.959C48.5849 153.298 42.8094 142.64 36.9999 132C32.2974 123.388 27.6125 114.766 22.9455 106.135C20.1178 100.905 17.2815 95.6809 14.4296 90.4648C13.8449 89.3928 13.2602 88.3208 12.6579 87.2163C11.5456 85.1773 10.4307 83.1398 9.31265 81.104C1.28721 66.3701 -2.45618 53.3605 0.64834 36.4726C5.19854 21.6748 14.5193 11.1419 27.9999 3.99999C33.9583 1.03808 39.2872 -0.124056 45.9291 -0.128811Z" fill="#FF6262"/>
</svg>
